<svg xmlns="http://www.w3.org/2000/svg" viewBox="0 0 325.96864 323.51995"><defs><style>.a{fill:#ff7f00;}.b{fill:#fff;}</style></defs><path class="a" d="M610.26279,177.80669l-2.023-7.24818-.64857-2.04251-1.43162-4.14256-2.11815-5.39856-2.87678-6.28118-2.27857-4.33613-4.29495-7.0239-1.82231-2.62237-1.35953-1.83986-5.71877-6.836-6.771-6.61412-1.26562-1.09416-1.53984-1.278-7.45238-5.4657-5.41361-3.3338-4.53023-2.44894L548.484,105.22689l-.65559-.25437-.25192-.09606-.55467-.20943L536.006,101.08635l-4.10108-1.078-6.657-1.50245-1.97148-.38988-7.04312-1.209-6.54526-.89415-2.91167-.3338-6.21472-.59562-5.23666-.39176-5.51222-.31708-4.92266-.21169-4.56916-.14518-6.67-.13811-4.43248-.0532-4.34982-.03-6.98853-.01711-4.3331-.00086-4.33319.00086-6.98844.01711-4.35.03-4.43234.0532-6.67.13811-4.56929.14518-4.92267.21169-5.51207.31708-5.23681.39176-6.21472.59562-2.91148.3338-6.5453.89415-7.04327,1.209-1.97134.38988-6.657,1.50245-4.10113,1.078L360.07209,104.667l-.55458.20943-.252.09606-.65554.25437-10.23382,4.57381-4.53018,2.44894-5.4137,3.3338-7.45247,5.4657-1.53965,1.278-1.26582,1.09416-6.77093,6.61412-5.71877,6.836-1.35953,1.83986-1.82236,2.62237-4.29485,7.0239-2.27862,4.33613-2.87668,6.28118-2.1183,5.39856-1.43147,4.14256-.64853,2.04251-2.02305,7.24818-1.2342,5.28559-.26234,1.246-.3821,1.89671-1.70987,10.30258-.46918,3.623-.5144,4.616-.54059,6.04441-.35649,5.16188-.30564,5.83027-.15618,4.004-.16479,5.988-.10433,6.2597-.03177,3.27085-.02936,6.2917-.00735,6.3289v3.1645l.00735,6.3289.02936,6.29176.03177,3.2708.10433,6.25974.16479,5.98794.15618,4.004.30564,5.83026.35649,5.16189.54059,6.04445.5144,4.616.46918,3.623,1.70987,10.30263.3821,1.89666.26234,1.246,1.2342,5.28564,2.02305,7.24818.64853,2.04247,1.43147,4.1426,2.1183,5.39852,2.87668,6.28118,2.27862,4.33615,4.29485,7.0239,1.82236,2.62239,1.35953,1.83983,5.71877,6.83605,6.77093,6.61414,1.26582,1.09414,1.53965,1.27793,7.45247,5.46575,5.4137,3.33383,4.53018,2.44886L358.61,405.85008l.65554.25434.252.096.55458.20945,11.01589,3.5807,4.10113,1.07794,6.657,1.5025,1.97134.38988,7.04327,1.209,6.5453.89417,2.91148.33378,6.21472.59562,5.23681.39171,5.51207.3171,4.92267.21164,4.56929.14521,6.67.13816,4.43234.05315,4.35.03,6.98844.01706,4.33319.00089,4.3331-.00089,6.98853-.01706,4.34982-.03,4.43248-.05315,6.67-.13816,4.56916-.14521,4.92266-.21164,5.51222-.3171,5.23666-.39171,6.21472-.59562,2.91167-.33378,6.54526-.89417,7.04312-1.209,1.97148-.38988,6.657-1.5025,4.10108-1.07794,11.01579-3.5807.55467-.20945.25192-.096.65559-.25434,10.23381-4.57388,4.53023-2.44886,5.41361-3.33383,7.45238-5.46575,1.53984-1.27793,1.26562-1.09414,6.771-6.61414,5.71877-6.836,1.35953-1.83983,1.82231-2.62239,4.29495-7.0239,2.27857-4.33615,2.87678-6.28118,2.11815-5.39852,1.43162-4.1426.64857-2.04247,2.023-7.24818,1.2341-5.28564.26239-1.246.38205-1.89666,1.70987-10.30263.46922-3.623.5144-4.616.54055-6.04445.35649-5.16189.30573-5.83026.15609-4.004.16484-5.98794.10438-6.25974.03171-3.2708.02922-6.29176.0075-6.3289v-3.1645l-.0075-6.3289-.02922-6.2917-.03171-3.27085-.10438-6.2597-.16484-5.988-.15609-4.004-.30573-5.83027-.35649-5.16188-.54055-6.04441-.5144-4.616-.46922-3.623L612.14133,186.235l-.38205-1.89671-.26239-1.246Z" transform="translate(-290.56269 -93.77849)"/><path class="b" d="M548.60716,318.53846h-25a3,3,0,0,1-3-3v-120a3,3,0,0,1,3-3h25a2,2,0,0,1,2,2v122A2,2,0,0,1,548.60716,318.53846Z" transform="translate(-290.56269 -93.77849)"/><path class="b" d="M495.90937,242.948V315.5381a3,3,0,0,1-3,3h-24a3,3,0,0,1-3-3V243.64823c0-15.77-7.57827-21.11013-16.5484-21.11013H389.23939a3,3,0,0,0-3,3v90a3,3,0,0,1-3,3h-24a3,3,0,0,1-3-3v-120a3,3,0,0,1,3-3H435.547C477.26789,192.5381,495.90937,200.52949,495.90937,242.948Z" transform="translate(-290.56269 -93.77849)"/><path class="b" d="M440.0725,318.53846h-27a3,3,0,0,1-3-3V244.48071a3,3,0,0,1,3-3h27a2,2,0,0,1,2,2v73.05775A2,2,0,0,1,440.0725,318.53846Z" transform="translate(-290.56269 -93.77849)"/></svg>