<svg xmlns="http://www.w3.org/2000/svg" viewBox="0 0 1081 2341"><defs><style>.a{stroke:#000;stroke-miterlimit:10;}.b{fill:#fff;}</style></defs><rect class="a" x="0.5" y="0.5" width="1080" height="2340"/><path class="b" d="M371.10156,1049.24976V930.75024h24.75l38.1001,58.64991h.8999l38.1001-58.64991h24.75v118.49952h-27V981.15015h-.90039l-24.8999,37.95019h-21l-24.89991-37.35058h-.8999v67.5Z" transform="translate(0.5 0.5)"/><path class="b" d="M544.79932,1049.24976H516.89941V930.75024h27.89991Z" transform="translate(0.5 0.5)"/><path class="b" d="M612.89844,1025.24976q10.04736,0,15.5249-5.77442,5.47411-5.77294,5.4751-17.47558V930.75024h27.8999v72.3003q0,15.29883-5.9248,26.1748a39.14268,39.14268,0,0,1-16.9502,16.5q-11.02515,5.625-26.0249,5.625-15.00147,0-26.0249-5.625a39.12967,39.12967,0,0,1-16.9502-16.5q-5.92749-10.87353-5.9248-26.1748v-72.3003h27.8999v70.64991q0,12.00292,5.5498,17.92578Q602.99634,1025.25269,612.89844,1025.24976Z" transform="translate(0.5 0.5)"/><path class="b" d="M708.89844,1049.24976h-27.8999V930.75024h27.8999Z" transform="translate(0.5 0.5)"/><path class="b" d="M481.19971,1229.24976l43.65039-64.04883,16.0498,22.79883-25.20019,41.25Zm83.10009,0L531.75,1178.40015l-48.30029-67.65039H517.5l31.5,47.10058,49.7998,71.39942ZM555,1168.95093l-16.05029-21.75,23.40039-36.45117h34.0498Z" transform="translate(0.5 0.5)"/><path class="b" d="M434.77539,1290.74976h33.75l23.84961,48.90039h.90039l23.84961-48.90039h33.75l-44.09961,73.7998v44.7002H478.875v-44.7002Z" transform="translate(0.5 0.5)"/><path class="b" d="M589.57422,1409.24976h-27.8999v-118.5h79.35009v26.09961H589.57422v23.55078h47.8501v26.09961h-47.8501Z" transform="translate(0.5 0.5)"/></svg>