<svg xmlns="http://www.w3.org/2000/svg" viewBox="0 0 1081 2341"><defs><style>.a{stroke:#000;stroke-miterlimit:10;}.b{fill:#fff;}</style></defs><rect class="a" x="0.5" y="0.5" width="1080" height="2340"/><path class="b" d="M371.10156,1228.19946V1109.7h24.75l38.1001,58.6499h.8999l38.1001-58.6499h24.75v118.49951h-27v-68.09961h-.90039l-24.8999,37.9502h-21l-24.89991-37.35059h-.8999v67.5Z" transform="translate(0.5 0.5)"/><path class="b" d="M544.79932,1228.19946H516.89941V1109.7h27.89991Z" transform="translate(0.5 0.5)"/><path class="b" d="M612.89844,1204.19946q10.04736,0,15.5249-5.77441,5.47411-5.77294,5.4751-17.47559V1109.7h27.8999v72.30029q0,15.29883-5.9248,26.17481a39.14268,39.14268,0,0,1-16.9502,16.5q-11.02515,5.625-26.0249,5.625-15.00147,0-26.0249-5.625a39.12967,39.12967,0,0,1-16.9502-16.5q-5.92749-10.87353-5.9248-26.17481V1109.7h27.8999v70.6499q0,12.00294,5.5498,17.92578Q602.99634,1204.2024,612.89844,1204.19946Z" transform="translate(0.5 0.5)"/><path class="b" d="M708.89844,1228.19946h-27.8999V1109.7h27.8999Z" transform="translate(0.5 0.5)"/></svg>