<svg class="icon" style="width: 1em;height: 1em;vertical-align: middle;fill: currentColor;overflow: hidden;" viewBox="0 0 1024 1024" version="1.1" xmlns="http://www.w3.org/2000/svg" p-id="4286"><path d="M688.638896 0.0064H335.361104a127.9992 127.9992 0 0 0-127.9992 127.9992v806.39496A89.59944 89.59944 0 0 0 295.681352 1024h433.277292a88.959444 88.959444 0 0 0 88.959444-88.959444V128.0056a127.9992 127.9992 0 0 0-129.279192-127.9992zM348.80102 912.0007a47.9997 47.9997 0 1 1 47.9997-47.9997 47.9997 47.9997 0 0 1-47.9997 47.9997z m0-168.958944a47.9997 47.9997 0 1 1 47.9997-47.9997 47.9997 47.9997 0 0 1-47.9997 47.9997z m0-167.038956a47.9997 47.9997 0 1 1 47.9997-47.9997 47.9997 47.9997 0 0 1-47.9997 47.9997zM512 912.0007a47.9997 47.9997 0 1 1 47.9997-47.9997 47.9997 47.9997 0 0 1-47.9997 47.9997z m0-168.958944a47.9997 47.9997 0 1 1 47.9997-47.9997 47.9997 47.9997 0 0 1-47.9997 47.9997zM512 576.0028a47.9997 47.9997 0 1 1 47.9997-47.9997A47.9997 47.9997 0 0 1 512 576.0028z m163.19898 337.917888a47.9997 47.9997 0 1 1 47.9997-47.9997 47.9997 47.9997 0 0 1-47.9997 46.079712z m0-168.958944a47.9997 47.9997 0 1 1 47.9997-47.9997 47.9997 47.9997 0 0 1-47.9997 46.079712z m0-168.958944a47.9997 47.9997 0 1 1 47.9997-47.9997 47.9997 47.9997 0 0 1-47.9997 47.9997z m47.9997-222.718608a41.59974 41.59974 0 0 1-41.59974 41.59974h-339.19788a41.59974 41.59974 0 0 1-41.59974-41.59974V144.0055a41.59974 41.59974 0 0 1 41.59974-41.59974h339.19788a41.59974 41.59974 0 0 1 41.59974 41.59974z" fill="#333333" p-id="4287"></path></svg>